<svg height="990" ed:hSpacing="30" ed:name="Page-1" xmlns:ev="http://www.w3.org/2001/xml-events" viewBox="0 0 727 990" xmlns="http://www.w3.org/2000/svg" xmlns:xlink="http://www.w3.org/1999/xlink" xmlns:ed="https://www.edrawsoft.com/xml/2017/SVGExtensions/" width="727" ed:vSpacing="30" id="page100"><style type="text/css"><![CDATA[
g[ed\:togtopicid],g[ed\:hyperlink],g[ed\:comment],g[ed\:note] {cursor:pointer;}
g[id] {-moz-user-select: none;-ms-user-select: none;user-select: none;}
svg text::selection,svg tspan::selection{background-color: #4285f4;color: #ffffff;fill: #ffffff;}
.st2 {fill:#454545;font-family:微软雅黑 Light;font-size:12pt}
.st1 {fill:#454545;font-family:微软雅黑 Light;font-size:14pt}
.st3 {fill:#454545;font-family:微软雅黑;font-size:10pt}
.st4 {fill:#454545;font-family:微软雅黑;font-size:12pt}
]]></style><defs><linearGradient y1="0%" x2="0%" y2="100%" x1="0%" id="lg1"><stop offset="0" stop-color="#ffffff"/><stop offset="0.25" stop-color="#f0f5f0"/><stop offset="0.75" stop-color="#e1ebe1"/><stop offset="1" stop-color="#c8d7c8"/></linearGradient></defs><rect x="0" y="0" height="990" fill="#fbfcfb" width="727"/><path stroke="#80cf70" ed:parentid="170,172" stroke-linejoin="round" transform="matrix(1,0,0,1,472,645)" ed:type="summary" d="M0.1,0C6,0,5.9,3.5,5.9,3.5L5.9,24.4C5.9,24.4,6.9,27.4,12,27.4C6.9,27.5,5.9,30.4,5.9,30.4L5.9,51.3C5.9,51.3,5.8,54.8,0,54.8" ed:idlist="170,172" fill="none" id="176"/><path stroke="#ff7575" ed:parentid="101" ed:tosuperid="102" stroke-linejoin="round" stroke-linecap="round" transform="matrix(1,0,0,1,137,281)" d="M-33,184.2C-33.5,185.9,-32.9,187.4,-31.6,187.9C-30.3,188.3,-28.8,187.6,-28.2,185.9C-27.5,183.6,-26.8,181.3,-26.1,179C-25.5,176.8,-24.9,174.5,-24.4,172.2C-23.9,169.9,-23.4,167.5,-22.9,165.2C-22.4,162.9,-22,160.6,-21.6,158.3C-21.2,156,-20.8,153.7,-20.5,151.3C-20.1,149,-19.8,146.7,-19.5,144.4C-19.2,142,-18.9,139.7,-18.7,137.4C-18.4,135,-18.1,132.7,-17.9,130.4C-17.7,128.1,-17.4,125.7,-17.2,123.4C-17,121.1,-16.8,118.7,-16.6,116.4C-16.5,114.1,-16.3,111.7,-16.1,109.4C-15.9,107.1,-15.8,104.7,-15.6,102.4C-15.5,100.1,-15.3,97.7,-15.2,95.4C-15.1,93.1,-14.9,90.7,-14.8,88.4C-14.7,86.1,-14.6,83.7,-14.5,81.4C-14.3,79.1,-14.2,76.7,-14.1,74.4C-14,72.1,-13.9,69.7,-13.8,67.4C-13.7,65.1,-13.6,62.7,-13.5,60.4C-13.5,58.1,-13.4,55.7,-13.3,53.4C-13.2,51.1,-13.1,48.7,-13,46.4C-12.9,44.1,-12.9,41.7,-12.8,39.4C-12.7,37.1,-12.6,34.7,-12.5,32.4C-12.5,30.1,-12.4,27.7,-12.3,25.4C-12.2,23.1,-12.1,20.7,-12.1,18.4C-12,16.1,-11.9,13.8,-11.8,11.4C-11.7,9.1,-11.6,6.8,-11.6,4.4C-11.5,2.1,-11.4,-0.2,-11.3,-2.6C-11.2,-4.9,-11.1,-7.2,-11,-9.6C-10.9,-11.9,-10.8,-14.2,-10.7,-16.5C-10.6,-18.9,-10.5,-21.2,-10.4,-23.5C-10.3,-25.9,-10.2,-28.2,-10.1,-30.5C-10,-32.9,-9.8,-35.2,-9.7,-37.5C-9.6,-39.8,-9.5,-42.2,-9.3,-44.5C-9.2,-46.8,-9,-49.1,-8.9,-51.5C-8.7,-53.8,-8.6,-56.1,-8.4,-58.4C-8.3,-60.8,-8.1,-63.1,-7.9,-65.4C-7.7,-67.7,-7.6,-70.1,-7.4,-72.4C-7.2,-74.7,-7,-77,-6.8,-79.3C-6.5,-81.7,-6.3,-84,-6.1,-86.3C-5.9,-88.6,-5.6,-90.9,-5.4,-93.3C-5.1,-95.6,-4.8,-97.9,-4.6,-100.2C-4.3,-102.5,-4,-104.8,-3.7,-107.1C-3.4,-109.4,-3,-111.7,-2.7,-114C-2.4,-116.3,-2,-118.6,-1.6,-120.9C-1.2,-123.2,-0.8,-125.5,-0.4,-127.8C-0,-130.1,0.4,-132.4,0.9,-134.7C1.3,-137,1.8,-139.2,2.3,-141.5C2.8,-143.8,3.4,-146,4,-148.3C4.5,-150.5,5.1,-152.8,5.8,-155C6.4,-157.3,7.1,-159.5,7.8,-161.7C8.5,-163.9,9.2,-166.1,10,-168.3C10.9,-170.5,11.7,-172.6,12.6,-174.8C13.5,-176.9,14.5,-179,15.5,-181.1C16.5,-183.1,17.6,-185.2,18.8,-187.2C20,-189.2,21.2,-191.1,22.6,-193C23.9,-194.9,25.3,-196.7,26.9,-198.4C28.4,-200.1,30,-201.8,31.8,-203.3C33.5,-204.8,35.4,-206.2,37.3,-207.4C39.3,-208.6,41.4,-209.6,43.5,-210.5C45.6,-211.3,47.6,-212,50.1,-212.5C52.6,-212.9,55.5,-213.2,57,-213.3C58.4,-213.4,58.5,-213.4,58.6,-213.3C59,-213.2,59.2,-213.6,59.2,-213.8C59.2,-214.1,59,-214.2,58.6,-214.3C58.5,-214.4,58.4,-214.4,56.9,-214.3C55.4,-214.2,52.4,-214,49.9,-213.5C47.3,-213.1,45.2,-212.4,43.1,-211.5C40.9,-210.7,38.8,-209.6,36.7,-208.4C34.7,-207.2,32.8,-205.8,31,-204.2C29.2,-202.7,27.5,-201.1,25.9,-199.3C24.3,-197.6,22.8,-195.7,21.4,-193.8C20,-191.9,18.7,-190,17.5,-187.9C16.3,-185.9,15.2,-183.9,14.1,-181.8C13.1,-179.7,12.1,-177.5,11.1,-175.4C10.2,-173.2,9.3,-171.1,8.5,-168.9C7.7,-166.7,6.9,-164.5,6.1,-162.2C5.4,-160,4.7,-157.8,4,-155.5C3.4,-153.3,2.7,-151,2.2,-148.8C1.6,-146.5,1,-144.2,0.5,-141.9C-0.1,-139.7,-0.6,-137.4,-1.1,-135.1C-1.6,-132.8,-2,-130.5,-2.5,-128.2C-2.9,-125.9,-3.3,-123.6,-3.7,-121.3C-4.1,-119,-4.5,-116.7,-4.9,-114.4C-5.2,-112.1,-5.6,-109.8,-5.9,-107.4C-6.2,-105.1,-6.6,-102.8,-6.9,-100.5C-7.2,-98.2,-7.5,-95.9,-7.7,-93.5C-8,-91.2,-8.3,-88.9,-8.5,-86.6C-8.8,-84.2,-9,-81.9,-9.3,-79.6C-9.5,-77.3,-9.7,-74.9,-9.9,-72.6C-10.2,-70.3,-10.4,-68,-10.6,-65.6C-10.8,-63.3,-11,-61,-11.1,-58.6C-11.3,-56.3,-11.5,-54,-11.7,-51.7C-11.8,-49.3,-12,-47,-12.2,-44.7C-12.3,-42.3,-12.5,-40,-12.6,-37.7C-12.8,-35.3,-12.9,-33,-13,-30.7C-13.2,-28.4,-13.3,-26,-13.5,-23.7C-13.6,-21.4,-13.7,-19,-13.8,-16.7C-14,-14.4,-14.1,-12,-14.2,-9.7C-14.3,-7.4,-14.4,-5,-14.5,-2.7C-14.6,-0.4,-14.8,2,-14.9,4.3C-15,6.6,-15.1,9,-15.2,11.3C-15.3,13.6,-15.4,15.9,-15.5,18.3C-15.6,20.6,-15.7,22.9,-15.8,25.3C-15.9,27.6,-16,29.9,-16.1,32.3C-16.2,34.6,-16.3,36.9,-16.4,39.3C-16.5,41.6,-16.6,43.9,-16.7,46.3C-16.8,48.6,-16.9,50.9,-17,53.2C-17.1,55.6,-17.3,57.9,-17.4,60.2C-17.5,62.6,-17.6,64.9,-17.7,67.2C-17.8,69.5,-18,71.9,-18.1,74.2C-18.2,76.5,-18.3,78.9,-18.5,81.2C-18.6,83.5,-18.7,85.8,-18.9,88.2C-19,90.5,-19.2,92.8,-19.3,95.1C-19.5,97.5,-19.7,99.8,-19.8,102.1C-20,104.4,-20.2,106.7,-20.4,109.1C-20.6,111.4,-20.8,113.7,-21,116C-21.2,118.3,-21.4,120.7,-21.6,123C-21.9,125.3,-22.1,127.6,-22.4,129.9C-22.6,132.2,-22.9,134.5,-23.2,136.8C-23.5,139.1,-23.8,141.4,-24.1,143.7C-24.4,146,-24.7,148.3,-25.1,150.6C-25.5,152.9,-25.9,155.2,-26.3,157.5C-26.7,159.7,-27.1,162,-27.6,164.3C-28.1,166.5,-28.6,168.8,-29.1,171C-29.7,173.3,-30.2,175.5,-30.9,177.7C-31.5,179.9,-32.3,182.1,-33,184.2z" fill="#ff7575" id="103"/><path stroke="#5fb7f1" ed:parentid="101" ed:tosuperid="104" stroke-linejoin="round" stroke-linecap="round" transform="matrix(1,0,0,1,137,340)" d="M-30.6,125.3C-31.2,127,-30.6,128.5,-29.3,128.9C-28,129.4,-26.5,128.7,-25.9,127C-25.1,124.7,-24.4,122.5,-23.7,120.2C-23,117.9,-22.4,115.6,-21.8,113.3C-21.3,111,-20.7,108.7,-20.2,106.4C-19.8,104.1,-19.3,101.8,-18.9,99.5C-18.5,97.2,-18.1,94.9,-17.7,92.5C-17.3,90.2,-17,87.9,-16.7,85.6C-16.4,83.3,-16.1,80.9,-15.8,78.6C-15.5,76.3,-15.2,74,-15,71.6C-14.7,69.3,-14.4,67,-14.2,64.6C-14,62.3,-13.8,60,-13.5,57.7C-13.3,55.3,-13.1,53,-12.9,50.7C-12.7,48.3,-12.5,46,-12.3,43.7C-12.1,41.4,-12,39,-11.8,36.7C-11.6,34.4,-11.4,32,-11.3,29.7C-11.1,27.4,-10.9,25.1,-10.7,22.7C-10.6,20.4,-10.4,18.1,-10.2,15.8C-10.1,13.4,-9.9,11.1,-9.7,8.8C-9.5,6.5,-9.4,4.1,-9.2,1.8C-9,-0.5,-8.8,-2.8,-8.6,-5.2C-8.5,-7.5,-8.3,-9.8,-8.1,-12.1C-7.9,-14.5,-7.7,-16.8,-7.5,-19.1C-7.3,-21.4,-7.1,-23.8,-6.8,-26.1C-6.6,-28.4,-6.4,-30.7,-6.1,-33C-5.9,-35.3,-5.7,-37.7,-5.4,-40C-5.1,-42.3,-4.9,-44.6,-4.6,-46.9C-4.3,-49.2,-4,-51.5,-3.7,-53.8C-3.4,-56.1,-3,-58.4,-2.7,-60.7C-2.4,-63,-2,-65.3,-1.6,-67.6C-1.2,-69.9,-0.8,-72.2,-0.4,-74.5C0,-76.8,0.5,-79.1,1,-81.4C1.4,-83.6,1.9,-85.9,2.5,-88.2C3,-90.4,3.6,-92.7,4.2,-94.9C4.8,-97.2,5.4,-99.4,6.1,-101.6C6.8,-103.8,7.5,-106,8.3,-108.2C9,-110.4,9.8,-112.6,10.7,-114.7C11.6,-116.9,12.5,-119,13.5,-121.1C14.5,-123.2,15.6,-125.2,16.8,-127.2C17.9,-129.2,19.2,-131.2,20.5,-133C21.8,-134.9,23.2,-136.8,24.8,-138.5C26.3,-140.2,27.9,-141.8,29.6,-143.4C31.4,-144.9,33.2,-146.3,35.2,-147.5C37.1,-148.7,39.2,-149.8,41.3,-150.7C43.3,-151.6,45.4,-152.3,47.8,-152.8C50.2,-153.4,52.8,-153.7,54.6,-153.9C56.5,-154.1,57.6,-154.1,58.6,-154.1C59,-154.1,59.2,-154.3,59.2,-154.6C59.2,-154.9,59,-155.1,58.6,-155.1C57.5,-155.1,56.4,-155.1,54.5,-155C52.7,-154.8,50,-154.5,47.5,-153.9C45.1,-153.4,42.9,-152.7,40.8,-151.8C38.6,-150.9,36.5,-149.8,34.5,-148.6C32.4,-147.4,30.5,-146,28.7,-144.4C26.9,-142.9,25.2,-141.2,23.6,-139.5C22,-137.7,20.6,-135.9,19.2,-134C17.8,-132.1,16.5,-130.1,15.3,-128.1C14.1,-126,13,-124,11.9,-121.8C10.9,-119.7,9.9,-117.6,9,-115.4C8.1,-113.3,7.2,-111.1,6.4,-108.9C5.6,-106.7,4.8,-104.5,4.1,-102.2C3.4,-100,2.7,-97.7,2.1,-95.5C1.5,-93.2,0.9,-91,0.3,-88.7C-0.3,-86.4,-0.8,-84.1,-1.3,-81.8C-1.8,-79.6,-2.3,-77.3,-2.8,-75C-3.2,-72.7,-3.6,-70.4,-4.1,-68.1C-4.5,-65.8,-4.9,-63.5,-5.2,-61.1C-5.6,-58.8,-6,-56.5,-6.3,-54.2C-6.7,-51.9,-7,-49.6,-7.3,-47.3C-7.6,-44.9,-7.9,-42.6,-8.2,-40.3C-8.5,-38,-8.8,-35.7,-9.1,-33.3C-9.3,-31,-9.6,-28.7,-9.8,-26.4C-10.1,-24.1,-10.3,-21.7,-10.6,-19.4C-10.8,-17.1,-11,-14.8,-11.3,-12.4C-11.5,-10.1,-11.7,-7.8,-11.9,-5.5C-12.1,-3.1,-12.3,-0.8,-12.6,1.5C-12.8,3.8,-13,6.2,-13.2,8.5C-13.4,10.8,-13.6,13.1,-13.8,15.5C-14,17.8,-14.2,20.1,-14.4,22.4C-14.6,24.8,-14.8,27.1,-15,29.4C-15.2,31.7,-15.4,34.1,-15.6,36.4C-15.8,38.7,-16,41,-16.2,43.4C-16.5,45.7,-16.7,48,-16.9,50.3C-17.1,52.6,-17.4,54.9,-17.6,57.3C-17.9,59.6,-18.1,61.9,-18.4,64.2C-18.6,66.5,-18.9,68.8,-19.2,71.1C-19.5,73.4,-19.8,75.7,-20.1,78C-20.4,80.3,-20.7,82.6,-21.1,84.9C-21.4,87.2,-21.8,89.5,-22.2,91.8C-22.6,94.1,-23,96.4,-23.5,98.6C-23.9,100.9,-24.4,103.2,-24.9,105.4C-25.4,107.7,-25.9,109.9,-26.5,112.2C-27.1,114.4,-27.7,116.6,-28.4,118.8C-29.1,121,-29.8,123.1,-30.6,125.3z" fill="#5fb7f1" id="105"/><path stroke="#ffcd55" ed:parentid="101" ed:tosuperid="106" stroke-linejoin="round" stroke-linecap="round" transform="matrix(1,0,0,1,137,422)" d="M-23.9,44.7C-24.8,46.3,-24.4,47.9,-23.1,48.5C-21.9,49.2,-20.3,48.7,-19.5,47.1C-18.4,44.9,-17.4,42.8,-16.4,40.7C-15.4,38.5,-14.5,36.3,-13.6,34.1C-12.7,31.9,-11.9,29.7,-11.1,27.5C-10.2,25.3,-9.5,23.1,-8.7,20.9C-7.9,18.7,-7.2,16.4,-6.5,14.2C-5.7,12,-5,9.8,-4.3,7.6C-3.6,5.3,-2.9,3.1,-2.1,0.9C-1.4,-1.3,-0.7,-3.5,0,-5.7C0.8,-8,1.5,-10.2,2.3,-12.4C3,-14.6,3.8,-16.7,4.6,-18.9C5.4,-21.1,6.2,-23.3,7.1,-25.4C7.9,-27.6,8.8,-29.7,9.8,-31.8C10.7,-33.9,11.7,-36,12.7,-38.1C13.8,-40.2,14.9,-42.2,16,-44.2C17.2,-46.2,18.4,-48.1,19.8,-50C21.1,-51.9,22.5,-53.7,24,-55.4C25.5,-57.2,27.1,-58.8,28.8,-60.4C30.5,-61.9,32.3,-63.3,34.2,-64.6C36.1,-65.9,38.1,-67,40.2,-67.9C42.2,-68.9,44.4,-69.7,46.6,-70.3C48.9,-70.9,51.4,-71.3,53.4,-71.6C55.5,-71.8,57.1,-71.8,58.6,-71.9C59,-71.9,59.2,-72.1,59.2,-72.4C59.2,-72.7,59,-72.9,58.6,-72.9C57,-72.9,55.4,-72.9,53.3,-72.7C51.2,-72.5,48.7,-72.1,46.3,-71.6C43.9,-71,41.7,-70.2,39.6,-69.3C37.4,-68.4,35.3,-67.3,33.3,-66C31.3,-64.7,29.3,-63.3,27.5,-61.8C25.7,-60.2,24,-58.6,22.4,-56.8C20.9,-55,19.4,-53.2,17.9,-51.3C16.5,-49.4,15.2,-47.4,14,-45.4C12.7,-43.4,11.5,-41.4,10.4,-39.3C9.3,-37.2,8.3,-35.1,7.2,-33C6.2,-30.9,5.3,-28.7,4.3,-26.6C3.4,-24.4,2.5,-22.2,1.6,-20.1C0.8,-17.9,-0.1,-15.7,-0.9,-13.5C-1.7,-11.3,-2.5,-9.1,-3.3,-6.9C-4.1,-4.7,-4.9,-2.5,-5.7,-0.3C-6.4,1.9,-7.2,4.1,-8,6.3C-8.8,8.5,-9.5,10.7,-10.3,12.9C-11.1,15.1,-11.9,17.3,-12.7,19.4C-13.5,21.6,-14.4,23.8,-15.2,25.9C-16.1,28.1,-17,30.2,-17.9,32.3C-18.8,34.5,-19.7,36.6,-20.7,38.6C-21.8,40.7,-22.8,42.7,-23.9,44.7z" fill="#ffcd55" id="107"/><path stroke="#f1a3dc" ed:parentid="101" ed:tosuperid="108" stroke-linejoin="round" stroke-linecap="round" transform="matrix(1,0,0,1,137,497)" d="M-4.3,-3C-6.1,-3.1,-7.3,-2,-7.4,-0.7C-7.5,0.7,-6.3,2,-4.5,2C-2.2,2.1,0.1,2.1,2.5,2.2C4.8,2.2,7.1,2.3,9.5,2.3C11.8,2.4,14.1,2.5,16.5,2.5C18.8,2.6,21.1,2.6,23.5,2.7C25.8,2.7,28.1,2.8,30.5,2.8C32.8,2.8,35.2,2.9,37.5,2.9C39.8,2.9,42.2,2.9,44.5,2.9C46.8,2.9,49.2,2.9,51.5,2.8C53.9,2.8,56.3,2.7,58.6,2.7C59,2.7,59.2,2.4,59.2,2.2C59.2,1.9,59,1.7,58.6,1.7C56.3,1.6,53.9,1.5,51.5,1.4C49.2,1.3,46.9,1.1,44.6,1C42.2,0.9,39.9,0.7,37.6,0.5C35.3,0.4,32.9,0.2,30.6,0C28.3,-0.2,26,-0.3,23.6,-0.5C21.3,-0.7,19,-0.9,16.7,-1.1C14.3,-1.3,12,-1.6,9.7,-1.8C7.4,-2,5,-2.2,2.7,-2.4C0.4,-2.6,-1.9,-2.8,-4.3,-3z" fill="#f1a3dc" id="109"/><path stroke="#6cc9e5" ed:parentid="101" ed:tosuperid="110" stroke-linejoin="round" stroke-linecap="round" transform="matrix(1,0,0,1,137,548)" d="M-16.2,-30.5C-17.1,-32,-18.8,-32.3,-19.9,-31.5C-21.1,-30.7,-21.3,-29.1,-20.3,-27.6C-19,-25.7,-17.7,-23.8,-16.5,-21.9C-15.2,-20,-14,-18,-12.9,-16C-11.7,-14,-10.5,-12,-9.4,-10C-8.3,-7.9,-7.2,-5.9,-6.1,-3.8C-5,-1.8,-3.9,0.3,-2.8,2.3C-1.6,4.4,-0.5,6.4,0.6,8.5C1.7,10.5,2.9,12.6,4.1,14.6C5.3,16.6,6.5,18.6,7.7,20.6C9,22.6,10.3,24.6,11.6,26.5C13,28.5,14.4,30.4,15.9,32.2C17.4,34.1,18.9,35.9,20.6,37.6C22.2,39.3,23.9,40.9,25.7,42.5C27.6,44,29.5,45.4,31.5,46.7C33.5,48,35.6,49.1,37.7,50.1C39.9,51.1,42.2,51.9,44.4,52.5C46.7,53.1,49,53.6,51.4,53.9C53.8,54.1,56.2,54.2,58.6,54.2C59,54.2,59.2,54,59.2,53.7C59.2,53.5,59,53.2,58.6,53.2C56.3,53.1,53.9,53,51.6,52.6C49.3,52.3,47,51.8,44.8,51.1C42.7,50.4,40.5,49.6,38.5,48.6C36.4,47.5,34.4,46.4,32.5,45.1C30.7,43.8,28.9,42.3,27.2,40.8C25.5,39.3,23.9,37.6,22.3,35.9C20.8,34.2,19.4,32.4,18,30.6C16.6,28.7,15.3,26.9,14,24.9C12.8,23,11.6,21,10.4,19C9.2,17,8.1,15,7,13C5.9,10.9,4.8,8.9,3.8,6.8C2.7,4.7,1.7,2.6,0.6,0.6C-0.4,-1.5,-1.4,-3.6,-2.5,-5.7C-3.5,-7.8,-4.6,-9.9,-5.6,-12C-6.7,-14.1,-7.8,-16.2,-8.9,-18.2C-10,-20.3,-11.2,-22.4,-12.4,-24.4C-13.6,-26.4,-14.9,-28.4,-16.2,-30.5z" fill="#6cc9e5" id="111"/><path stroke="#80cf70" ed:parentid="101" ed:tosuperid="112" stroke-linejoin="round" stroke-linecap="round" transform="matrix(1,0,0,1,137,600)" d="M-23.1,-78.5C-23.7,-80.1,-25.3,-80.8,-26.6,-80.2C-27.8,-79.7,-28.4,-78.2,-27.7,-76.5C-26.8,-74.4,-25.9,-72.3,-25.1,-70.1C-24.3,-68,-23.6,-65.8,-22.9,-63.6C-22.2,-61.4,-21.5,-59.2,-20.9,-57C-20.3,-54.8,-19.7,-52.5,-19.1,-50.3C-18.5,-48,-18,-45.8,-17.5,-43.5C-16.9,-41.3,-16.4,-39,-16,-36.7C-15.5,-34.5,-15,-32.2,-14.5,-29.9C-14.1,-27.6,-13.6,-25.3,-13.2,-23C-12.7,-20.8,-12.3,-18.5,-11.9,-16.2C-11.4,-13.9,-11,-11.6,-10.6,-9.3C-10.1,-7,-9.7,-4.7,-9.3,-2.4C-8.8,-0.1,-8.4,2.2,-7.9,4.5C-7.5,6.8,-7,9,-6.6,11.3C-6.1,13.6,-5.6,15.9,-5.2,18.2C-4.7,20.5,-4.2,22.8,-3.7,25.1C-3.2,27.4,-2.6,29.6,-2.1,31.9C-1.5,34.2,-0.9,36.5,-0.3,38.7C0.3,41,0.9,43.3,1.5,45.5C2.2,47.8,2.9,50,3.6,52.2C4.3,54.5,5.1,56.7,5.9,58.9C6.7,61.1,7.6,63.3,8.5,65.5C9.4,67.6,10.4,69.8,11.4,71.9C12.4,74,13.5,76.1,14.7,78.1C15.9,80.2,17.2,82.2,18.5,84.1C19.9,86,21.4,87.9,22.9,89.7C24.5,91.5,26.2,93.1,28,94.7C29.7,96.3,31.6,97.7,33.6,99C35.7,100.2,37.8,101.3,39.9,102.3C42.1,103.2,44.3,103.9,46.7,104.5C49.1,105,51.7,105.4,53.7,105.6C55.7,105.8,57.2,105.8,58.6,105.8C59,105.8,59.2,105.6,59.2,105.3C59.2,105,59,104.8,58.6,104.8C57.2,104.8,55.8,104.7,53.8,104.5C51.8,104.3,49.3,103.9,47,103.3C44.7,102.7,42.6,102,40.5,101C38.4,100.1,36.4,99,34.5,97.7C32.5,96.5,30.7,95,29,93.5C27.3,91.9,25.7,90.3,24.3,88.5C22.8,86.8,21.4,84.9,20.1,83C18.8,81.1,17.6,79.2,16.5,77.1C15.4,75.1,14.3,73.1,13.3,71C12.4,68.9,11.4,66.7,10.6,64.6C9.7,62.5,8.9,60.3,8.2,58.1C7.4,55.9,6.7,53.7,6,51.5C5.3,49.3,4.7,47,4.1,44.8C3.5,42.5,2.9,40.3,2.4,38C1.8,35.8,1.3,33.5,0.8,31.3C0.3,29,-0.2,26.7,-0.7,24.4C-1.2,22.2,-1.6,19.9,-2,17.6C-2.5,15.3,-2.9,13,-3.3,10.7C-3.7,8.4,-4.2,6.1,-4.6,3.8C-5,1.5,-5.4,-0.8,-5.7,-3.1C-6.1,-5.4,-6.5,-7.7,-6.9,-10C-7.3,-12.3,-7.7,-14.6,-8.1,-16.9C-8.5,-19.2,-8.9,-21.5,-9.3,-23.8C-9.7,-26.1,-10.1,-28.4,-10.5,-30.7C-10.9,-33,-11.4,-35.3,-11.8,-37.6C-12.3,-39.9,-12.7,-42.2,-13.2,-44.5C-13.7,-46.8,-14.2,-49.1,-14.7,-51.3C-15.3,-53.6,-15.8,-55.9,-16.4,-58.2C-17,-60.5,-17.7,-62.8,-18.3,-65C-19,-67.3,-19.7,-69.5,-20.5,-71.8C-21.3,-74,-22.2,-76.2,-23.1,-78.5z" fill="#80cf70" id="113"/><path stroke="#fa8556" ed:parentid="101" ed:tosuperid="114" stroke-linejoin="round" stroke-linecap="round" transform="matrix(1,0,0,1,137,651)" d="M-26,-129.2C-26.6,-130.9,-28.1,-131.7,-29.4,-131.2C-30.7,-130.7,-31.3,-129.2,-30.7,-127.5C-29.9,-125.4,-29.2,-123.2,-28.5,-121C-27.8,-118.8,-27.2,-116.6,-26.6,-114.4C-26,-112.2,-25.5,-109.9,-25,-107.7C-24.5,-105.4,-24,-103.1,-23.6,-100.9C-23.1,-98.6,-22.7,-96.3,-22.3,-94C-22,-91.8,-21.6,-89.5,-21.2,-87.2C-20.9,-84.9,-20.6,-82.6,-20.3,-80.3C-19.9,-78,-19.7,-75.7,-19.4,-73.4C-19.1,-71,-18.8,-68.7,-18.6,-66.4C-18.3,-64.1,-18,-61.8,-17.8,-59.5C-17.6,-57.2,-17.3,-54.8,-17.1,-52.5C-16.9,-50.2,-16.7,-47.9,-16.5,-45.6C-16.2,-43.2,-16,-40.9,-15.8,-38.6C-15.6,-36.3,-15.4,-34,-15.2,-31.6C-15,-29.3,-14.8,-27,-14.6,-24.7C-14.4,-22.3,-14.2,-20,-14.1,-17.7C-13.9,-15.4,-13.7,-13,-13.5,-10.7C-13.3,-8.4,-13.1,-6.1,-12.9,-3.7C-12.7,-1.4,-12.5,0.9,-12.3,3.2C-12.1,5.6,-11.9,7.9,-11.6,10.2C-11.4,12.5,-11.2,14.9,-11,17.2C-10.8,19.5,-10.5,21.8,-10.3,24.2C-10,26.5,-9.8,28.8,-9.5,31.1C-9.3,33.5,-9,35.8,-8.7,38.1C-8.5,40.4,-8.2,42.8,-7.9,45.1C-7.6,47.4,-7.3,49.7,-6.9,52C-6.6,54.3,-6.3,56.7,-5.9,59C-5.6,61.3,-5.2,63.6,-4.8,65.9C-4.4,68.2,-4,70.5,-3.6,72.8C-3.2,75.1,-2.7,77.4,-2.2,79.7C-1.8,82,-1.3,84.3,-0.7,86.6C-0.2,88.9,0.4,91.1,1,93.4C1.5,95.7,2.2,97.9,2.8,100.2C3.5,102.4,4.2,104.7,4.9,106.9C5.7,109.1,6.5,111.3,7.3,113.5C8.2,115.7,9.1,117.9,10,120C11,122.2,12,124.3,13.1,126.4C14.2,128.4,15.4,130.5,16.7,132.5C17.9,134.5,19.3,136.4,20.7,138.3C22.2,140.1,23.8,141.9,25.4,143.6C27.1,145.3,28.9,146.8,30.7,148.3C32.6,149.7,34.6,151,36.7,152.1C38.8,153.2,41,154.2,43.2,155C45.4,155.7,47.5,156.3,50.1,156.7C52.6,157.1,55.6,157.3,57.1,157.3C58.6,157.4,58.6,157.4,58.6,157.4C58.8,157,59.2,157.1,59.2,156.9C59.2,156.6,58.8,156,58.6,156.4C58.6,156.4,58.6,156.4,57.1,156.3C55.7,156.2,52.8,156,50.3,155.6C47.8,155.2,45.7,154.6,43.6,153.8C41.5,153.1,39.3,152.1,37.3,151C35.3,149.9,33.4,148.6,31.6,147.2C29.8,145.8,28.1,144.2,26.5,142.6C24.9,140.9,23.4,139.2,22,137.3C20.6,135.5,19.3,133.6,18.1,131.6C16.9,129.6,15.7,127.6,14.7,125.6C13.6,123.5,12.6,121.4,11.7,119.3C10.8,117.2,9.9,115,9.1,112.8C8.3,110.7,7.6,108.5,6.8,106.3C6.1,104.1,5.5,101.8,4.8,99.6C4.2,97.4,3.6,95.1,3.1,92.9C2.5,90.6,2,88.3,1.5,86.1C1,83.8,0.5,81.5,0.1,79.2C-0.4,77,-0.8,74.7,-1.2,72.4C-1.6,70.1,-2,67.8,-2.3,65.5C-2.7,63.2,-3,60.9,-3.3,58.6C-3.7,56.3,-4,54,-4.3,51.7C-4.6,49.4,-4.8,47,-5.1,44.7C-5.4,42.4,-5.6,40.1,-5.9,37.8C-6.1,35.5,-6.4,33.2,-6.6,30.8C-6.8,28.5,-7,26.2,-7.2,23.9C-7.4,21.6,-7.7,19.2,-7.8,16.9C-8,14.6,-8.2,12.3,-8.4,9.9C-8.6,7.6,-8.8,5.3,-9,3C-9.1,0.6,-9.3,-1.7,-9.5,-4C-9.6,-6.3,-9.8,-8.7,-10,-11C-10.1,-13.3,-10.3,-15.6,-10.5,-18C-10.6,-20.3,-10.8,-22.6,-11,-24.9C-11.1,-27.3,-11.3,-29.6,-11.5,-31.9C-11.6,-34.3,-11.8,-36.6,-12,-38.9C-12.2,-41.2,-12.3,-43.6,-12.5,-45.9C-12.7,-48.2,-12.9,-50.6,-13.1,-52.9C-13.3,-55.2,-13.5,-57.6,-13.7,-59.9C-13.9,-62.2,-14.1,-64.5,-14.4,-66.9C-14.6,-69.2,-14.9,-71.5,-15.1,-73.8C-15.4,-76.2,-15.6,-78.5,-15.9,-80.8C-16.2,-83.2,-16.5,-85.5,-16.8,-87.8C-17.1,-90.1,-17.5,-92.5,-17.8,-94.8C-18.2,-97.1,-18.6,-99.4,-19,-101.7C-19.4,-104,-19.9,-106.4,-20.4,-108.7C-20.9,-111,-21.4,-113.3,-21.9,-115.6C-22.5,-117.9,-23.1,-120.2,-23.8,-122.4C-24.5,-124.7,-25.2,-127,-26,-129.2z" fill="#fa8556" id="115"/><path stroke="#ff7575" ed:parentid="102" ed:tosuperid="116" stroke-linejoin="round" stroke-width="2" stroke-linecap="round" transform="matrix(1,0,0,1,341,57)" d="M-13.5,10.4C-0.3,10.4,-0.2,-10.4,13.5,-10.4" fill="none" id="117"/><path stroke="#ff7575" ed:parentid="102" ed:tosuperid="118" stroke-linejoin="round" stroke-width="2" stroke-linecap="round" transform="matrix(1,0,0,1,341,72)" d="M-13.5,-4.9C-1.5,-4.9,2.7,4.9,13.5,4.9" fill="none" id="119"/><path stroke="#ff7575" ed:parentid="116" ed:tosuperid="120" stroke-linejoin="round" stroke-width="2" stroke-linecap="round" transform="matrix(1,0,0,1,495,46)" d="M-13.5,0C-2.7,0,5.4,0,13.5,0" fill="none" id="121"/><path stroke="#ff7575" ed:parentid="118" ed:tosuperid="122" stroke-linejoin="round" stroke-width="2" stroke-linecap="round" transform="matrix(1,0,0,1,481,77)" d="M-13.5,0C-2.7,0,5.4,0,13.5,0" fill="none" id="123"/><path stroke="#5fb7f1" ed:parentid="104" ed:tosuperid="124" stroke-linejoin="round" stroke-width="2" stroke-linecap="round" transform="matrix(1,0,0,1,309,183)" d="M-13.5,2.8C-2.1,2.8,3.9,-2.8,13.5,-2.8" fill="none" id="125"/><path stroke="#ffcd55" ed:parentid="106" ed:tosuperid="132" stroke-linejoin="round" stroke-width="2" stroke-linecap="round" transform="matrix(1,0,0,1,325,324)" d="M-13.5,25.7C2.8,25.7,-7.5,-25.7,13.5,-25.7" fill="none" id="133"/><path stroke="#f1a3dc" ed:parentid="108" ed:tosuperid="134" stroke-linejoin="round" stroke-width="2" stroke-linecap="round" transform="matrix(1,0,0,1,309,496)" d="M-13.5,2.8C-2.1,2.8,3.9,-2.8,13.5,-2.8" fill="none" id="135"/><path stroke="#5fb7f1" ed:parentid="124" ed:tosuperid="136" stroke-linejoin="round" stroke-width="2" stroke-linecap="round" transform="matrix(1,0,0,1,408,157)" d="M-13.5,23C2.3,23,-6.3,-23,13.5,-23" fill="none" id="137"/><path stroke="#5fb7f1" ed:parentid="124" ed:tosuperid="138" stroke-linejoin="round" stroke-width="2" stroke-linecap="round" transform="matrix(1,0,0,1,408,172)" d="M-13.5,7.7C-0.9,7.7,1.2,-7.7,13.5,-7.7" fill="none" id="139"/><path stroke="#5fb7f1" ed:parentid="124" ed:tosuperid="140" stroke-linejoin="round" stroke-width="2" stroke-linecap="round" transform="matrix(1,0,0,1,408,188)" d="M-13.5,-7.7C-0.9,-7.7,1.2,7.7,13.5,7.7" fill="none" id="141"/><path stroke="#f1a3dc" ed:parentid="134" ed:tosuperid="142" stroke-linejoin="round" stroke-width="2" stroke-linecap="round" transform="matrix(1,0,0,1,449,478)" d="M-13.5,15.3C0.8,15.3,-2.7,-15.3,13.5,-15.3" fill="none" id="143"/><path stroke="#f1a3dc" ed:parentid="134" ed:tosuperid="144" stroke-linejoin="round" stroke-width="2" stroke-linecap="round" transform="matrix(1,0,0,1,449,501)" d="M-13.5,-7.7C-0.9,-7.7,1.2,7.7,13.5,7.7" fill="none" id="145"/><path stroke="#f1a3dc" ed:parentid="144" ed:tosuperid="146" stroke-linejoin="round" stroke-width="2" stroke-linecap="round" transform="matrix(1,0,0,1,549,501)" d="M-13.5,7.7C-0.9,7.7,1.2,-7.7,13.5,-7.7" fill="none" id="147"/><path stroke="#f1a3dc" ed:parentid="144" ed:tosuperid="148" stroke-linejoin="round" stroke-width="2" stroke-linecap="round" transform="matrix(1,0,0,1,549,516)" d="M-13.5,-7.7C-0.9,-7.7,1.2,7.7,13.5,7.7" fill="none" id="149"/><path stroke="#f1a3dc" ed:parentid="142" ed:tosuperid="150" stroke-linejoin="round" stroke-width="2" stroke-linecap="round" transform="matrix(1,0,0,1,521,463)" d="M-13.5,0C-2.7,0,5.4,0,13.5,0" fill="none" id="151"/><path stroke="#ffcd55" ed:parentid="106" ed:tosuperid="152" stroke-linejoin="round" stroke-width="2" stroke-linecap="round" transform="matrix(1,0,0,1,325,362)" d="M-13.5,-12.6C0.2,-12.6,-1.4,12.6,13.5,12.6" fill="none" id="153"/><path stroke="#5fb7f1" ed:parentid="124" ed:tosuperid="154" stroke-linejoin="round" stroke-width="2" stroke-linecap="round" transform="matrix(1,0,0,1,408,203)" d="M-13.5,-23C2.3,-23,-6.3,23,13.5,23" fill="none" id="155"/><path stroke="#ffcd55" ed:parentid="132" ed:tosuperid="156" stroke-linejoin="round" stroke-width="2" stroke-linecap="round" transform="matrix(1,0,0,1,465,291)" d="M-13.5,7.7C-0.9,7.7,1.2,-7.7,13.5,-7.7" fill="none" id="157"/><path stroke="#ffcd55" ed:parentid="152" ed:tosuperid="158" stroke-linejoin="round" stroke-width="2" stroke-linecap="round" transform="matrix(1,0,0,1,492,360)" d="M-13.5,15.3C0.8,15.3,-2.7,-15.3,13.5,-15.3" fill="none" id="159"/><path stroke="#ffcd55" ed:parentid="132" ed:tosuperid="160" stroke-linejoin="round" stroke-width="2" stroke-linecap="round" transform="matrix(1,0,0,1,465,306)" d="M-13.5,-7.7C-0.9,-7.7,1.2,7.7,13.5,7.7" fill="none" id="161"/><path stroke="#ffcd55" ed:parentid="152" ed:tosuperid="162" stroke-linejoin="round" stroke-width="2" stroke-linecap="round" transform="matrix(1,0,0,1,492,383)" d="M-13.5,-7.7C-0.9,-7.7,1.2,7.7,13.5,7.7" fill="none" id="163"/><path stroke="#ffcd55" ed:parentid="162" ed:tosuperid="164" stroke-linejoin="round" stroke-width="2" stroke-linecap="round" transform="matrix(1,0,0,1,646,383)" d="M-13.5,7.7C-0.9,7.7,1.2,-7.7,13.5,-7.7" fill="none" id="165"/><path stroke="#ffcd55" ed:parentid="162" ed:tosuperid="166" stroke-linejoin="round" stroke-width="2" stroke-linecap="round" transform="matrix(1,0,0,1,646,398)" d="M-13.5,-7.7C-0.9,-7.7,1.2,7.7,13.5,7.7" fill="none" id="167"/><path stroke="#80cf70" ed:parentid="112" ed:tosuperid="168" stroke-linejoin="round" stroke-width="2" stroke-linecap="round" transform="matrix(1,0,0,1,309,702)" d="M-13.5,2.8C-2.1,2.8,3.9,-2.8,13.5,-2.8" fill="none" id="169"/><path stroke="#80cf70" ed:parentid="168" ed:tosuperid="170" stroke-linejoin="round" stroke-width="2" stroke-linecap="round" transform="matrix(1,0,0,1,408,684)" d="M-13.5,15.3C0.8,15.3,-2.7,-15.3,13.5,-15.3" fill="none" id="171"/><path stroke="#80cf70" ed:parentid="168" ed:tosuperid="172" stroke-linejoin="round" stroke-width="2" stroke-linecap="round" transform="matrix(1,0,0,1,408,700)" d="M-13.5,-0C-2.7,-0,5.4,0,13.5,0" fill="none" id="173"/><path stroke="#80cf70" ed:parentid="168" ed:tosuperid="174" stroke-linejoin="round" stroke-width="2" stroke-linecap="round" transform="matrix(1,0,0,1,408,715)" d="M-13.5,-15.3C0.8,-15.3,-2.7,15.3,13.5,15.3" fill="none" id="175"/><path stroke="#fa8556" ed:parentid="114" ed:tosuperid="178" stroke-linejoin="round" stroke-width="2" stroke-linecap="round" transform="matrix(1,0,0,1,309,798)" d="M-13.5,10.4C-0.3,10.4,-0.2,-10.4,13.5,-10.4" fill="none" id="179"/><path stroke="#fa8556" ed:parentid="114" ed:tosuperid="180" stroke-linejoin="round" stroke-width="2" stroke-linecap="round" transform="matrix(1,0,0,1,309,813)" d="M-13.5,-4.9C-1.5,-4.9,2.7,4.9,13.5,4.9" fill="none" id="181"/><path stroke="#6cc9e5" ed:parentid="110" ed:tosuperid="182" stroke-linejoin="round" stroke-width="2" stroke-linecap="round" transform="matrix(1,0,0,1,309,592)" d="M-13.5,10.4C-0.3,10.4,-0.2,-10.4,13.5,-10.4" fill="none" id="183"/><path stroke="#6cc9e5" ed:parentid="110" ed:tosuperid="184" stroke-linejoin="round" stroke-width="2" stroke-linecap="round" transform="matrix(1,0,0,1,309,607)" d="M-13.5,-4.9C-1.5,-4.9,2.7,4.9,13.5,4.9" fill="none" id="185"/><path stroke="#a98ae7" ed:parentid="101" ed:tosuperid="186" stroke-linejoin="round" stroke-linecap="round" transform="matrix(1,0,0,1,137,711)" d="M-28.3,-187.9C-28.9,-189.6,-30.4,-190.4,-31.7,-189.9C-33,-189.5,-33.6,-188,-33.1,-186.3C-32.3,-184.1,-31.6,-181.9,-31,-179.7C-30.3,-177.5,-29.8,-175.3,-29.2,-173.1C-28.7,-170.8,-28.2,-168.6,-27.7,-166.3C-27.2,-164.1,-26.8,-161.8,-26.4,-159.5C-25.9,-157.2,-25.6,-154.9,-25.2,-152.7C-24.8,-150.4,-24.5,-148.1,-24.2,-145.8C-23.8,-143.5,-23.5,-141.2,-23.3,-138.9C-23,-136.6,-22.7,-134.3,-22.4,-132C-22.2,-129.6,-21.9,-127.3,-21.7,-125C-21.5,-122.7,-21.3,-120.4,-21.1,-118.1C-20.8,-115.7,-20.6,-113.4,-20.5,-111.1C-20.3,-108.8,-20.1,-106.5,-19.9,-104.1C-19.7,-101.8,-19.6,-99.5,-19.4,-97.2C-19.3,-94.9,-19.1,-92.5,-19,-90.2C-18.8,-87.9,-18.7,-85.6,-18.6,-83.2C-18.4,-80.9,-18.3,-78.6,-18.2,-76.2C-18,-73.9,-17.9,-71.6,-17.8,-69.3C-17.7,-66.9,-17.6,-64.6,-17.5,-62.3C-17.3,-59.9,-17.2,-57.6,-17.1,-55.3C-17,-53,-16.9,-50.6,-16.8,-48.3C-16.7,-46,-16.6,-43.6,-16.5,-41.3C-16.4,-39,-16.3,-36.6,-16.2,-34.3C-16.1,-32,-16,-29.6,-15.9,-27.3C-15.8,-25,-15.7,-22.7,-15.6,-20.3C-15.5,-18,-15.4,-15.7,-15.3,-13.3C-15.2,-11,-15.1,-8.7,-15,-6.3C-14.9,-4,-14.8,-1.7,-14.7,0.7C-14.5,3,-14.4,5.3,-14.3,7.7C-14.2,10,-14.1,12.3,-14,14.7C-13.9,17,-13.7,19.3,-13.6,21.6C-13.5,24,-13.4,26.3,-13.2,28.6C-13.1,31,-13,33.3,-12.8,35.6C-12.7,38,-12.5,40.3,-12.4,42.6C-12.2,45,-12.1,47.3,-11.9,49.6C-11.7,51.9,-11.6,54.3,-11.4,56.6C-11.2,58.9,-11,61.3,-10.8,63.6C-10.6,65.9,-10.4,68.3,-10.2,70.6C-10,72.9,-9.8,75.2,-9.6,77.6C-9.4,79.9,-9.1,82.2,-8.9,84.5C-8.6,86.9,-8.4,89.2,-8.1,91.5C-7.9,93.8,-7.6,96.1,-7.3,98.5C-7,100.8,-6.7,103.1,-6.4,105.4C-6.1,107.7,-5.7,110.1,-5.4,112.4C-5,114.7,-4.7,117,-4.3,119.3C-3.9,121.6,-3.5,123.9,-3.1,126.2C-2.7,128.5,-2.3,130.8,-1.8,133.1C-1.3,135.4,-0.9,137.7,-0.3,140C0.2,142.3,0.7,144.5,1.2,146.8C1.8,149.1,2.4,151.4,3,153.6C3.6,155.9,4.3,158.1,5,160.4C5.7,162.6,6.4,164.8,7.2,167C8,169.3,8.8,171.4,9.7,173.6C10.5,175.8,11.5,178,12.4,180.1C13.4,182.2,14.5,184.3,15.6,186.4C16.7,188.5,17.9,190.5,19.2,192.5C20.5,194.4,21.8,196.4,23.3,198.2C24.8,200.1,26.3,201.8,28,203.5C29.7,205.2,31.5,206.7,33.4,208.1C35.3,209.5,37.3,210.8,39.4,211.9C41.5,213,43.6,213.9,45.9,214.6C48.3,215.3,50.7,215.8,52.9,216C55,216.3,56.8,216.3,58.6,216.4C59,216.4,59.2,216.2,59.2,215.9C59.2,215.6,59,215.4,58.6,215.4C56.9,215.3,55.1,215.3,53,215C50.9,214.7,48.5,214.2,46.3,213.5C44,212.8,41.9,211.9,39.9,210.8C37.9,209.8,35.9,208.5,34.1,207.1C32.3,205.7,30.5,204.2,28.9,202.6C27.3,200.9,25.8,199.2,24.4,197.4C23,195.5,21.6,193.6,20.4,191.7C19.2,189.7,18,187.7,16.9,185.7C15.8,183.6,14.8,181.6,13.9,179.4C12.9,177.3,12,175.2,11.2,173C10.3,170.9,9.5,168.7,8.8,166.5C8,164.3,7.3,162.1,6.7,159.8C6,157.6,5.4,155.4,4.8,153.1C4.2,150.9,3.6,148.6,3.1,146.4C2.6,144.1,2,141.8,1.6,139.6C1.1,137.3,0.6,135,0.2,132.7C-0.2,130.4,-0.7,128.1,-1.1,125.8C-1.4,123.6,-1.8,121.3,-2.2,119C-2.5,116.7,-2.9,114.4,-3.2,112C-3.5,109.7,-3.8,107.4,-4.1,105.1C-4.4,102.8,-4.7,100.5,-5,98.2C-5.2,95.9,-5.5,93.6,-5.7,91.2C-6,88.9,-6.2,86.6,-6.4,84.3C-6.6,82,-6.9,79.6,-7.1,77.3C-7.3,75,-7.5,72.7,-7.6,70.4C-7.8,68,-8,65.7,-8.2,63.4C-8.3,61.1,-8.5,58.7,-8.7,56.4C-8.8,54.1,-9,51.8,-9.1,49.4C-9.2,47.1,-9.4,44.8,-9.5,42.5C-9.6,40.1,-9.8,37.8,-9.9,35.5C-10,33.1,-10.1,30.8,-10.2,28.5C-10.3,26.2,-10.5,23.8,-10.6,21.5C-10.7,19.2,-10.8,16.8,-10.9,14.5C-11,12.2,-11,9.8,-11.1,7.5C-11.2,5.2,-11.3,2.9,-11.4,0.5C-11.5,-1.8,-11.6,-4.1,-11.7,-6.5C-11.7,-8.8,-11.8,-11.1,-11.9,-13.5C-12,-15.8,-12.1,-18.1,-12.1,-20.5C-12.2,-22.8,-12.3,-25.1,-12.4,-27.5C-12.5,-29.8,-12.5,-32.1,-12.6,-34.4C-12.7,-36.8,-12.8,-39.1,-12.9,-41.4C-12.9,-43.8,-13,-46.1,-13.1,-48.4C-13.2,-50.8,-13.3,-53.1,-13.4,-55.4C-13.4,-57.8,-13.5,-60.1,-13.6,-62.4C-13.7,-64.8,-13.8,-67.1,-13.9,-69.4C-14,-71.8,-14.1,-74.1,-14.2,-76.4C-14.3,-78.8,-14.4,-81.1,-14.5,-83.4C-14.6,-85.8,-14.8,-88.1,-14.9,-90.4C-15,-92.8,-15.1,-95.1,-15.3,-97.4C-15.4,-99.8,-15.6,-102.1,-15.7,-104.4C-15.9,-106.8,-16,-109.1,-16.2,-111.4C-16.4,-113.8,-16.5,-116.1,-16.7,-118.4C-16.9,-120.8,-17.1,-123.1,-17.3,-125.4C-17.5,-127.8,-17.7,-130.1,-18,-132.4C-18.2,-134.8,-18.5,-137.1,-18.7,-139.4C-19,-141.7,-19.3,-144.1,-19.6,-146.4C-19.9,-148.7,-20.2,-151,-20.6,-153.4C-20.9,-155.7,-21.3,-158,-21.7,-160.3C-22.1,-162.7,-22.5,-165,-23,-167.3C-23.4,-169.6,-23.9,-171.9,-24.5,-174.2C-25,-176.5,-25.6,-178.8,-26.2,-181.1C-26.9,-183.4,-27.6,-185.6,-28.3,-187.9z" fill="#a98ae7" id="187"/><path stroke="#a98ae7" ed:parentid="186" ed:tosuperid="188" stroke-linejoin="round" stroke-width="2" stroke-linecap="round" transform="matrix(1,0,0,1,277,901)" d="M-13.5,25.5C2.8,25.5,-7.4,-25.5,13.5,-25.5" fill="none" id="189"/><path stroke="#a98ae7" ed:parentid="186" ed:tosuperid="190" stroke-linejoin="round" stroke-width="2" stroke-linecap="round" transform="matrix(1,0,0,1,277,916)" d="M-13.5,10.2C-0.3,10.2,-0.1,-10.2,13.5,-10.2" fill="none" id="191"/><path stroke="#a98ae7" ed:parentid="186" ed:tosuperid="192" stroke-linejoin="round" stroke-width="2" stroke-linecap="round" transform="matrix(1,0,0,1,277,931)" d="M-13.5,-5.1C-1.5,-5.1,2.6,5.1,13.5,5.1" fill="none" id="193"/><path stroke="#a98ae7" ed:parentid="186" ed:tosuperid="194" stroke-linejoin="round" stroke-width="2" stroke-linecap="round" transform="matrix(1,0,0,1,277,947)" d="M-13.5,-20.4C1.8,-20.4,-5.2,20.4,13.5,20.4" fill="none" id="195"/><path stroke="#a98ae7" ed:parentid="194" ed:tosuperid="196" stroke-linejoin="round" stroke-width="2" stroke-linecap="round" transform="matrix(1,0,0,1,376,967)" d="M-13.5,0C-2.7,0,5.4,0,13.5,0" fill="none" id="197"/><path stroke="#a98ae7" ed:parentid="192" ed:tosuperid="198" stroke-linejoin="round" stroke-width="2" stroke-linecap="round" transform="matrix(1,0,0,1,376,937)" d="M-13.5,0C-2.7,0,5.4,0,13.5,0" fill="none" id="199"/><path stroke="#a98ae7" ed:parentid="190" ed:tosuperid="200" stroke-linejoin="round" stroke-width="2" stroke-linecap="round" transform="matrix(1,0,0,1,376,906)" d="M-13.5,0C-2.7,0,5.4,0,13.5,0" fill="none" id="201"/><g ed:height="57.8" transform="matrix(1,0,0,1,24,466)" ed:topictype="mainidea" ed:width="108.576" id="101" ed:layout="rightmap"><path stroke="#ffffff" stroke-linejoin="round" stroke-width="4" d="M28.9,0L79.7,0C95.6,0,108.6,12.9,108.6,28.9C108.6,44.9,95.6,57.8,79.7,57.8L28.9,57.8C12.9,57.8,0,44.9,0,28.9C0,12.9,12.9,0,28.9,0z" fill="#ffffff"/><text class="st1"><tspan x="25" y="37" style="white-space:pre">包有房</tspan></text></g><g ed:parentid="101" ed:height="35.15" transform="matrix(1,0,0,1,196,32)" ed:width="132" id="102"><path stroke="#ff7575" stroke-linejoin="round" stroke-width="2" d="M0,35.1L132,35.1" fill="none"/><text class="st2"><tspan x="17" y="24.3" style="white-space:pre">角色权限管理</tspan></text></g><g ed:parentid="101" ed:height="35.15" transform="matrix(1,0,0,1,196,150)" ed:width="100" id="104"><path stroke="#5fb7f1" stroke-linejoin="round" stroke-width="2" d="M0,35.1L100,35.1" fill="none"/><text class="st2"><tspan x="17" y="24.3" style="white-space:pre">用户管理</tspan></text></g><g ed:parentid="101" ed:height="35.15" transform="matrix(1,0,0,1,196,315)" ed:width="116" id="106"><path stroke="#ffcd55" stroke-linejoin="round" stroke-width="2" d="M0,35.1L116,35.1" fill="none"/><text class="st2"><tspan x="17" y="24.3" style="white-space:pre">经纪人中心</tspan></text></g><g ed:parentid="101" ed:height="35.15" transform="matrix(1,0,0,1,196,464)" ed:width="100" id="108"><path stroke="#f1a3dc" stroke-linejoin="round" stroke-width="2" d="M0,35.1L100,35.1" fill="none"/><text class="st2"><tspan x="17" y="24.3" style="white-space:pre">客服中心</tspan></text></g><g ed:parentid="101" ed:height="35.15" transform="matrix(1,0,0,1,196,567)" ed:width="100" id="110"><path stroke="#6cc9e5" stroke-linejoin="round" stroke-width="2" d="M0,35.1L100,35.1" fill="none"/><text class="st2"><tspan x="17" y="24.3" style="white-space:pre">系统管理</tspan></text></g><g ed:parentid="101" ed:height="35.15" transform="matrix(1,0,0,1,196,670)" ed:width="100" id="112"><path stroke="#80cf70" stroke-linejoin="round" stroke-width="2" d="M0,35.1L100,35.1" fill="none"/><text class="st2"><tspan x="17" y="24.3" style="white-space:pre">审核中心</tspan></text></g><g ed:parentid="101" ed:height="35.15" transform="matrix(1,0,0,1,196,773)" ed:width="100" id="114"><path stroke="#fa8556" stroke-linejoin="round" stroke-width="2" d="M0,35.1L100,35.1" fill="none"/><text class="st2"><tspan x="17" y="24.3" style="white-space:pre">个人中心</tspan></text></g><g ed:parentid="102" ed:height="24.15" transform="matrix(1,0,0,1,355,22)" ed:width="126.8" id="116"><path stroke="#ff7575" stroke-linejoin="round" stroke-width="2" d="M0,24.1L126.8,24.1" fill="none"/><text class="st3"><tspan x="8" y="16" style="white-space:pre">角色模块权限管理</tspan></text></g><g ed:parentid="102" ed:height="24.15" transform="matrix(1,0,0,1,355,53)" ed:width="113.2" id="118"><path stroke="#ff7575" stroke-linejoin="round" stroke-width="2" d="M0,24.1L113.2,24.1" fill="none"/><text class="st3"><tspan x="8" y="16" style="white-space:pre">操作员角色管理</tspan></text></g><g ed:parentid="116" ed:height="24.15" transform="matrix(1,0,0,1,508,22)" ed:width="181.2" id="120"><path stroke="#ff7575" stroke-linejoin="round" stroke-width="2" d="M0,24.1L181.2,24.1" fill="none"/><text class="st3"><tspan x="8" y="16" style="white-space:pre">配置角色可以访问哪些模块</tspan></text></g><g ed:parentid="118" ed:height="24.15" transform="matrix(1,0,0,1,495,53)" ed:width="194.8" id="122"><path stroke="#ff7575" stroke-linejoin="round" stroke-width="2" d="M0,24.1L194.8,24.1" fill="none"/><text class="st3"><tspan x="8" y="16" style="white-space:pre">配置操作员可以担任哪些角色</tspan></text></g><g ed:parentid="104" ed:height="24.15" transform="matrix(1,0,0,1,323,156)" ed:width="72.40000000000001" id="124"><path stroke="#5fb7f1" stroke-linejoin="round" stroke-width="2" d="M0,24.1L72.4,24.1" fill="none"/><text class="st3"><tspan x="8" y="16" style="white-space:pre">用户列表</tspan></text></g><g ed:parentid="106" ed:height="24.15" transform="matrix(1,0,0,1,339,274)" ed:width="113.2" id="132"><path stroke="#ffcd55" stroke-linejoin="round" stroke-width="2" d="M0,24.1L113.2,24.1" fill="none"/><text class="st3"><tspan x="8" y="16" style="white-space:pre">等待经济人列表</tspan></text></g><g ed:parentid="108" ed:height="24.15" transform="matrix(1,0,0,1,323,469)" ed:width="113.2" id="134"><path stroke="#f1a3dc" stroke-linejoin="round" stroke-width="2" d="M0,24.1L113.2,24.1" fill="none"/><text class="st3"><tspan x="8" y="16" style="white-space:pre">待初步审核列表</tspan></text></g><g ed:parentid="124" ed:height="24.15" transform="matrix(1,0,0,1,422,110)" ed:width="45.2" id="136"><path stroke="#5fb7f1" stroke-linejoin="round" stroke-width="2" d="M0,24.1L45.2,24.1" fill="none"/><text class="st3"><tspan x="8" y="16" style="white-space:pre">删除</tspan></text></g><g ed:parentid="124" ed:height="24.15" transform="matrix(1,0,0,1,422,140)" ed:width="45.2" id="138"><path stroke="#5fb7f1" stroke-linejoin="round" stroke-width="2" d="M0,24.1L45.2,24.1" fill="none"/><text class="st3"><tspan x="8" y="16" style="white-space:pre">禁言</tspan></text></g><g ed:parentid="124" ed:height="24.15" transform="matrix(1,0,0,1,422,171)" ed:width="72.40000000000001" id="140"><path stroke="#5fb7f1" stroke-linejoin="round" stroke-width="2" d="M0,24.1L72.4,24.1" fill="none"/><text class="st3"><tspan x="8" y="16" style="white-space:pre">可用状态</tspan></text></g><g ed:parentid="134" ed:height="24.15" transform="matrix(1,0,0,1,463,439)" ed:width="45.2" id="142"><path stroke="#f1a3dc" stroke-linejoin="round" stroke-width="2" d="M0,24.1L45.2,24.1" fill="none"/><text class="st3"><tspan x="8" y="16" style="white-space:pre">删除</tspan></text></g><g ed:parentid="134" ed:height="24.15" transform="matrix(1,0,0,1,463,485)" ed:width="72.40000000000001" id="144"><path stroke="#f1a3dc" stroke-linejoin="round" stroke-width="2" d="M0,24.1L72.4,24.1" fill="none"/><text class="st3"><tspan x="8" y="16" style="white-space:pre">初步审核</tspan></text></g><g ed:parentid="144" ed:height="24.15" transform="matrix(1,0,0,1,562,469)" ed:width="45.2" id="146"><path stroke="#f1a3dc" stroke-linejoin="round" stroke-width="2" d="M0,24.1L45.2,24.1" fill="none"/><text class="st3"><tspan x="8" y="16" style="white-space:pre">确认</tspan></text></g><g ed:parentid="144" ed:height="24.15" transform="matrix(1,0,0,1,562,500)" ed:width="45.2" id="148"><path stroke="#f1a3dc" stroke-linejoin="round" stroke-width="2" d="M0,24.1L45.2,24.1" fill="none"/><text class="st3"><tspan x="8" y="16" style="white-space:pre">取消</tspan></text></g><g ed:parentid="142" ed:height="24.15" transform="matrix(1,0,0,1,535,439)" ed:width="72.40000000000001" id="150"><path stroke="#f1a3dc" stroke-linejoin="round" stroke-width="2" d="M0,24.1L72.4,24.1" fill="none"/><text class="st3"><tspan x="8" y="16" style="white-space:pre">通知用户</tspan></text></g><g ed:parentid="106" ed:height="24.15" transform="matrix(1,0,0,1,339,351)" ed:width="140.4" id="152"><path stroke="#ffcd55" stroke-linejoin="round" stroke-width="2" d="M0,24.1L140.4,24.1" fill="none"/><text class="st3"><tspan x="8" y="16" style="white-space:pre">经纪人个人预约列表</tspan></text></g><g ed:parentid="124" ed:height="24.15" transform="matrix(1,0,0,1,422,202)" ed:width="45.2" id="154"><path stroke="#5fb7f1" stroke-linejoin="round" stroke-width="2" d="M0,24.1L45.2,24.1" fill="none"/><text class="st3"><tspan x="8" y="16" style="white-space:pre">检索</tspan></text></g><g ed:parentid="132" ed:height="24.15" transform="matrix(1,0,0,1,479,259)" ed:width="45.2" id="156"><path stroke="#ffcd55" stroke-linejoin="round" stroke-width="2" d="M0,24.1L45.2,24.1" fill="none"/><text class="st3"><tspan x="8" y="16" style="white-space:pre">检索</tspan></text></g><g ed:parentid="152" ed:height="24.15" transform="matrix(1,0,0,1,506,320)" ed:width="45.2" id="158"><path stroke="#ffcd55" stroke-linejoin="round" stroke-width="2" d="M0,24.1L45.2,24.1" fill="none"/><text class="st3"><tspan x="8" y="16" style="white-space:pre">看房</tspan></text></g><g ed:parentid="132" ed:height="24.15" transform="matrix(1,0,0,1,479,290)" ed:width="86" id="160"><path stroke="#ffcd55" stroke-linejoin="round" stroke-width="2" d="M0,24.1L86,24.1" fill="none"/><text class="st3"><tspan x="8" y="16" style="white-space:pre">接受该预约</tspan></text></g><g ed:parentid="152" ed:height="24.15" transform="matrix(1,0,0,1,506,366)" ed:width="126.8" id="162"><path stroke="#ffcd55" stroke-linejoin="round" stroke-width="2" d="M0,24.1L126.8,24.1" fill="none"/><text class="st3"><tspan x="8" y="16" style="white-space:pre">添加上传房源信息</tspan></text></g><g ed:parentid="162" ed:height="24.15" transform="matrix(1,0,0,1,660,351)" ed:width="45.2" id="164"><path stroke="#ffcd55" stroke-linejoin="round" stroke-width="2" d="M0,24.1L45.2,24.1" fill="none"/><text class="st3"><tspan x="8" y="16" style="white-space:pre">确定</tspan></text></g><g ed:parentid="162" ed:height="24.15" transform="matrix(1,0,0,1,660,382)" ed:width="45.2" id="166"><path stroke="#ffcd55" stroke-linejoin="round" stroke-width="2" d="M0,24.1L45.2,24.1" fill="none"/><text class="st3"><tspan x="8" y="16" style="white-space:pre">取消</tspan></text></g><g ed:parentid="112" ed:height="24.15" transform="matrix(1,0,0,1,323,676)" ed:width="72.40000000000001" id="168"><path stroke="#80cf70" stroke-linejoin="round" stroke-width="2" d="M0,24.1L72.4,24.1" fill="none"/><text class="st3"><tspan x="8" y="16" style="white-space:pre">审核列表</tspan></text></g><g ed:parentid="168" ed:height="24.15" transform="matrix(1,0,0,1,422,645)" ed:width="45.2" id="170"><path stroke="#80cf70" stroke-linejoin="round" stroke-width="2" d="M0,24.1L45.2,24.1" fill="none"/><text class="st3"><tspan x="8" y="16" style="white-space:pre">上架</tspan></text></g><g ed:parentid="168" ed:height="24.15" transform="matrix(1,0,0,1,422,676)" ed:width="45.2" id="172"><path stroke="#80cf70" stroke-linejoin="round" stroke-width="2" d="M0,24.1L45.2,24.1" fill="none"/><text class="st3"><tspan x="8" y="16" style="white-space:pre">下架</tspan></text></g><g ed:parentid="168" ed:height="24.15" transform="matrix(1,0,0,1,422,706)" ed:width="99.59999999999999" id="174"><path stroke="#80cf70" stroke-linejoin="round" stroke-width="2" d="M0,24.1L99.6,24.1" fill="none"/><text class="st3"><tspan x="8" y="16" style="white-space:pre">更新房源信息</tspan></text></g><g ed:parentid="176" ed:height="28.4" transform="matrix(1,0,0,1,493,658)" ed:width="82.008" id="177" ed:layout="rightmap"><path stroke="#80cf70" stroke-linejoin="round" d="M14.2,0L67.8,0C75.7,0,82,6.4,82,14.2C82,22,75.7,28.4,67.8,28.4L14.2,28.4C6.4,28.4,0,22,0,14.2C0,6.4,6.4,0,14.2,0z" fill="#ffffff"/><text class="st3"><tspan x="12" y="18.4" style="white-space:pre">通知用户</tspan></text></g><g ed:parentid="114" ed:height="24.15" transform="matrix(1,0,0,1,323,763)" ed:width="72.40000000000001" id="178"><path stroke="#fa8556" stroke-linejoin="round" stroke-width="2" d="M0,24.1L72.4,24.1" fill="none"/><text class="st3"><tspan x="8" y="16" style="white-space:pre">个人信息</tspan></text></g><g ed:parentid="114" ed:height="24.15" transform="matrix(1,0,0,1,323,794)" ed:width="99.59999999999999" id="180"><path stroke="#fa8556" stroke-linejoin="round" stroke-width="2" d="M0,24.1L99.6,24.1" fill="none"/><text class="st3"><tspan x="8" y="16" style="white-space:pre">更新个人信息</tspan></text></g><g ed:parentid="110" ed:height="24.15" transform="matrix(1,0,0,1,323,557)" ed:width="154" id="182"><path stroke="#6cc9e5" stroke-linejoin="round" stroke-width="2" d="M0,24.1L154,24.1" fill="none"/><text class="st3"><tspan x="8" y="16" style="white-space:pre">用户首页可检索的选项</tspan></text></g><g ed:parentid="110" ed:height="24.15" transform="matrix(1,0,0,1,323,588)" ed:width="167.6" id="184"><path stroke="#6cc9e5" stroke-linejoin="round" stroke-width="2" d="M0,24.1L167.6,24.1" fill="none"/><text class="st3"><tspan x="8" y="16" style="white-space:pre">新添加房源时的选项维护</tspan></text></g><g ed:parentid="101" ed:height="34.35" transform="matrix(1,0,0,1,196,892)" ed:width="68" id="186"><path stroke="#a98ae7" stroke-linejoin="round" stroke-width="2" d="M0,34.4L68,34.4" fill="none"/><text class="st4"><tspan x="17" y="22" style="white-space:pre">客户</tspan></text></g><g ed:parentid="186" ed:height="24.15" transform="matrix(1,0,0,1,291,851)" ed:width="45.2" id="188"><path stroke="#a98ae7" stroke-linejoin="round" stroke-width="2" d="M0,24.1L45.2,24.1" fill="none"/><text class="st3"><tspan x="8" y="16" style="white-space:pre">检索</tspan></text></g><g ed:parentid="186" ed:height="24.15" transform="matrix(1,0,0,1,291,882)" ed:width="72.40000000000001" id="190"><path stroke="#a98ae7" stroke-linejoin="round" stroke-width="2" d="M0,24.1L72.4,24.1" fill="none"/><text class="st3"><tspan x="8" y="16" style="white-space:pre">信息中心</tspan></text></g><g ed:parentid="186" ed:height="24.15" transform="matrix(1,0,0,1,291,912)" ed:width="72.40000000000001" id="192"><path stroke="#a98ae7" stroke-linejoin="round" stroke-width="2" d="M0,24.1L72.4,24.1" fill="none"/><text class="st3"><tspan x="8" y="16" style="white-space:pre">添加委托</tspan></text></g><g ed:parentid="186" ed:height="24.15" transform="matrix(1,0,0,1,291,943)" ed:width="72.40000000000001" id="194"><path stroke="#a98ae7" stroke-linejoin="round" stroke-width="2" d="M0,24.1L72.4,24.1" fill="none"/><text class="st3"><tspan x="8" y="16" style="white-space:pre">我的委托</tspan></text></g><g ed:parentid="194" ed:height="24.15" transform="matrix(1,0,0,1,390,943)" ed:width="126.8" id="196"><path stroke="#a98ae7" stroke-linejoin="round" stroke-width="2" d="M0,24.1L126.8,24.1" fill="none"/><text class="st3"><tspan x="8" y="16" style="white-space:pre">查看委托成交信息</tspan></text></g><g ed:parentid="192" ed:height="24.15" transform="matrix(1,0,0,1,390,912)" ed:width="181.2" id="198"><path stroke="#a98ae7" stroke-linejoin="round" stroke-width="2" d="M0,24.1L181.2,24.1" fill="none"/><text class="st3"><tspan x="8" y="16" style="white-space:pre">填写委托信息后，提交委托</tspan></text></g><g ed:parentid="190" ed:height="24.15" transform="matrix(1,0,0,1,390,882)" ed:width="99.59999999999999" id="200"><path stroke="#a98ae7" stroke-linejoin="round" stroke-width="2" d="M0,24.1L99.6,24.1" fill="none"/><text class="st3"><tspan x="8" y="16" style="white-space:pre">查看系统信息</tspan></text></g><symbol id="plus"><path d="M11,6C11,8.8,8.8,11,6,11C3.2,11,1,8.8,1,6C1,3.2,3.2,1,6,1C8.8,1,11,3.2,11,6z" fill="url(#lg1)"/><path stroke="#46a000" stroke-width="0.7" d="M11,6C11,8.8,8.8,11,6,11C3.2,11,1,8.8,1,6C1,3.2,3.2,1,6,1C8.8,1,11,3.2,11,6zM3,6L9,6M6,3L6,9" fill="none"/></symbol><symbol id="minus"><path d="M11,6C11,8.8,8.8,11,6,11C3.2,11,1,8.8,1,6C1,3.2,3.2,1,6,1C8.8,1,11,3.2,11,6z" fill="url(#lg1)"/><path stroke="#46a000" stroke-width="0.7" d="M11,6C11,8.8,8.8,11,6,11C3.2,11,1,8.8,1,6C1,3.2,3.2,1,6,1C8.8,1,11,3.2,11,6zM3,6L9,6" fill="none"/></symbol><g ed:togtopicid="101" transform="translate(134,489)"><use xlink:href="#minus"/></g><g ed:togtopicid="102" transform="translate(329,43)"><use xlink:href="#minus"/></g><g ed:togtopicid="104" transform="translate(297,162)"><use xlink:href="#minus"/></g><g ed:togtopicid="106" transform="translate(313,326)"><use xlink:href="#minus"/></g><g ed:togtopicid="108" transform="translate(297,475)"><use xlink:href="#minus"/></g><g ed:togtopicid="110" transform="translate(297,579)"><use xlink:href="#minus"/></g><g ed:togtopicid="112" transform="translate(297,682)"><use xlink:href="#minus"/></g><g ed:togtopicid="114" transform="translate(297,785)"><use xlink:href="#minus"/></g><g ed:togtopicid="116" transform="translate(482,28)"><use xlink:href="#minus"/></g><g ed:togtopicid="118" transform="translate(469,59)"><use xlink:href="#minus"/></g><g ed:togtopicid="124" transform="translate(396,162)"><use xlink:href="#minus"/></g><g ed:togtopicid="132" transform="translate(453,280)"><use xlink:href="#minus"/></g><g ed:togtopicid="134" transform="translate(437,475)"><use xlink:href="#minus"/></g><g ed:togtopicid="142" transform="translate(509,445)"><use xlink:href="#minus"/></g><g ed:togtopicid="144" transform="translate(536,491)"><use xlink:href="#minus"/></g><g ed:togtopicid="152" transform="translate(480,357)"><use xlink:href="#minus"/></g><g ed:togtopicid="162" transform="translate(634,372)"><use xlink:href="#minus"/></g><g ed:togtopicid="168" transform="translate(396,682)"><use xlink:href="#minus"/></g><g ed:togtopicid="186" transform="translate(265,903)"><use xlink:href="#minus"/></g><g ed:togtopicid="190" transform="translate(364,888)"><use xlink:href="#minus"/></g><g ed:togtopicid="192" transform="translate(364,919)"><use xlink:href="#minus"/></g><g ed:togtopicid="194" transform="translate(364,949)"><use xlink:href="#minus"/></g></svg>