<svg height="546" ed:hSpacing="30" ed:name="Page-1" xmlns:ev="http://www.w3.org/2001/xml-events" viewBox="0 0 933 546" xmlns="http://www.w3.org/2000/svg" xmlns:xlink="http://www.w3.org/1999/xlink" xmlns:ed="https://www.edrawsoft.com/xml/2017/SVGExtensions/" width="933" ed:vSpacing="30" id="page100"><style type="text/css"><![CDATA[
g[ed\:togtopicid],g[ed\:hyperlink],g[ed\:comment],g[ed\:note] {cursor:pointer;}
g[id] {-moz-user-select: none;-ms-user-select: none;user-select: none;}
svg text::selection,svg tspan::selection{background-color: #4285f4;color: #ffffff;fill: #ffffff;}
.st8 {fill:#029793;font-family:微软雅黑;font-size:10pt}
.st14 {fill:#03aca7;font-family:微软雅黑;font-size:10pt}
.st5 {fill:#3493d3;font-family:微软雅黑;font-size:10pt}
.st12 {fill:#3ca8f0;font-family:宋体;font-size:10pt}
.st11 {fill:#3ca8f0;font-family:微软雅黑;font-size:10pt}
.st3 {fill:#86a61f;font-family:微软雅黑;font-size:10pt}
.st9 {fill:#9580b5;font-family:微软雅黑;font-size:10pt}
.st10 {fill:#baa797;font-family:微软雅黑;font-size:10pt}
.st7 {fill:#cc3a54;font-family:微软雅黑;font-size:10pt}
.st4 {fill:#d37300;font-family:微软雅黑;font-size:10pt}
.st6 {fill:#e1b34b;font-family:微软雅黑;font-size:10pt}
.st13 {fill:#e84361;font-family:微软雅黑;font-size:10pt}
.st2 {fill:#ffffff;font-family:微软雅黑;font-size:12pt}
.st1 {fill:#ffffff;font-family:微软雅黑;font-size:14pt}
]]></style><defs><linearGradient y1="0%" x2="0%" y2="100%" x1="0%" id="lg1"><stop offset="0" stop-color="#ffffff"/><stop offset="0.25" stop-color="#f0f5f0"/><stop offset="0.75" stop-color="#e1ebe1"/><stop offset="1" stop-color="#c8d7c8"/></linearGradient></defs><rect x="0" y="0" height="546" fill="#ffffff" width="933"/><path stroke="#99bd25" ed:parentid="101" ed:tosuperid="102" stroke-linejoin="round" stroke-linecap="round" transform="matrix(1,0,0,1,124,64)" d="M-19.5,0L19.5,0" fill="none" id="103"/><path stroke="#e84361" ed:parentid="101" ed:tosuperid="106" stroke-linejoin="round" stroke-linecap="round" transform="matrix(1,0,0,1,726,173)" d="M0,-108.9L53.3,-108.9C229.4,-108.9,229.4,108.9,53.3,108.9L0,108.9" fill="none" id="107"/><path stroke="#03aca7" ed:parentid="101" ed:tosuperid="108" stroke-linejoin="round" stroke-linecap="round" transform="matrix(1,0,0,1,571,282)" d="M86.7,0L-86.7,0" fill="none" id="109"/><path stroke="#aa92ce" ed:parentid="101" ed:tosuperid="110" stroke-linejoin="round" stroke-linecap="round" transform="matrix(1,0,0,1,350,282)" d="M81.5,0L-81.5,0" fill="none" id="111"/><path stroke="#f08300" ed:parentid="101" ed:tosuperid="112" stroke-linejoin="round" stroke-linecap="round" transform="matrix(1,0,0,1,254,64)" d="M-57.1,0L57.1,0" fill="none" id="113"/><path stroke="#3ca8f0" ed:parentid="101" ed:tosuperid="122" stroke-linejoin="round" stroke-linecap="round" transform="matrix(1,0,0,1,417,64)" d="M-52.7,0L52.7,0" fill="none" id="123"/><path stroke="#ffcc56" ed:parentid="101" ed:tosuperid="128" stroke-linejoin="round" stroke-linecap="round" transform="matrix(1,0,0,1,598,64)" d="M-43.5,0L43.5,0" fill="none" id="129"/><path stroke="#d4beac" ed:parentid="101" ed:tosuperid="130" stroke-linejoin="round" stroke-linecap="round" transform="matrix(1,0,0,1,199,368)" d="M0,-86.4C-113.7,-86.4,-113.7,86.4,0,86.4" fill="none" id="131"/><path stroke="#1c5661" ed:parentid="101" ed:tosuperid="134" stroke-linejoin="round" stroke-linecap="round" transform="matrix(1,0,0,1,318,454)" d="M-66.3,0L66.3,0" fill="none" id="135"/><path stroke="#99bd25" ed:parentid="102" ed:tosuperid="200" stroke-linejoin="round" stroke-linecap="round" transform="matrix(1,0,0,1,180,107)" d="M-9.5,-16.4L-9.5,-3.4L-9.5,10.4C-9.5,13.7,-6.8,16.4,-3.5,16.4L9.5,16.4" fill="none" id="201"/><path stroke="#99bd25" ed:parentid="102" ed:tosuperid="202" stroke-linejoin="round" stroke-linecap="round" transform="matrix(1,0,0,1,180,121)" d="M-9.5,-30.8L-9.5,-17.8L-9.5,24.8C-9.5,28.1,-6.8,30.8,-3.5,30.8L9.5,30.8" fill="none" id="203"/><path stroke="#f08300" ed:parentid="112" ed:tosuperid="206" stroke-linejoin="round" stroke-linecap="round" transform="matrix(1,0,0,1,347,107)" d="M-9.5,-16.4L-9.5,-3.4L-9.5,10.4C-9.5,13.7,-6.8,16.4,-3.5,16.4L9.5,16.4" fill="none" id="207"/><path stroke="#3ca8f0" ed:parentid="122" ed:tosuperid="214" stroke-linejoin="round" stroke-linecap="round" transform="matrix(1,0,0,1,506,121)" d="M-9.5,-17.8L-9.5,-4.8L-9.5,11.8C-9.5,15.1,-6.8,17.8,-3.5,17.8L9.5,17.8" fill="none" id="215"/><path stroke="#ffcc56" ed:parentid="128" ed:tosuperid="220" stroke-linejoin="round" stroke-linecap="round" transform="matrix(1,0,0,1,678,121)" d="M-9.5,-17.8L-9.5,-4.8L-9.5,11.8C-9.5,15.1,-6.8,17.8,-3.5,17.8L9.5,17.8" fill="none" id="221"/><path stroke="#e84361" ed:parentid="106" ed:tosuperid="224" stroke-linejoin="round" stroke-linecap="round" transform="matrix(1,0,0,1,694,332)" d="M-9.5,-16.8L-9.5,-3.8L-9.5,10.8C-9.5,14.1,-6.8,16.8,-3.5,16.8L9.5,16.8" fill="none" id="225"/><path stroke="#03aca7" ed:parentid="108" ed:tosuperid="228" stroke-linejoin="round" stroke-linecap="round" transform="matrix(1,0,0,1,467,324)" d="M-9.5,-16.4L-9.5,-3.4L-9.5,10.4C-9.5,13.7,-6.8,16.4,-3.5,16.4L9.5,16.4" fill="none" id="229"/><path stroke="#aa92ce" ed:parentid="110" ed:tosuperid="232" stroke-linejoin="round" stroke-linecap="round" transform="matrix(1,0,0,1,236,332)" d="M-9.5,-16.8L-9.5,-3.8L-9.5,10.8C-9.5,14.1,-6.8,16.8,-3.5,16.8L9.5,16.8" fill="none" id="233"/><path stroke="#aa92ce" ed:parentid="110" ed:tosuperid="234" stroke-linejoin="round" stroke-linecap="round" transform="matrix(1,0,0,1,236,346)" d="M-9.5,-31.2L-9.5,-18.2L-9.5,25.2C-9.5,28.5,-6.8,31.2,-3.5,31.2L9.5,31.2" fill="none" id="235"/><path stroke="#d4beac" ed:parentid="130" ed:tosuperid="236" stroke-linejoin="round" stroke-linecap="round" transform="matrix(1,0,0,1,235,497)" d="M-9.5,-16.3L-9.5,-3.3L-9.5,10.4C-9.5,13.7,-6.8,16.4,-3.5,16.4L9.5,16.4" fill="none" id="237"/><path stroke="#3ca8f0" ed:parentid="122" ed:tosuperid="273" stroke-linejoin="round" stroke-linecap="round" transform="matrix(1,0,0,1,506,136)" d="M-9.5,-32.3L-9.5,-19.3L-9.5,26.3C-9.5,29.6,-6.8,32.3,-3.5,32.3L9.5,32.3" fill="none" id="274"/><path stroke="#3ca8f0" ed:parentid="122" ed:tosuperid="277" stroke-linejoin="round" stroke-linecap="round" transform="matrix(1,0,0,1,506,150)" d="M-9.5,-46.7L-9.5,-33.7L-9.5,40.7C-9.5,44,-6.8,46.7,-3.5,46.7L9.5,46.7" fill="none" id="278"/><path stroke="#e84361" ed:parentid="106" ed:tosuperid="281" stroke-linejoin="round" stroke-linecap="round" transform="matrix(1,0,0,1,694,346)" d="M-9.5,-31.2L-9.5,-18.2L-9.5,25.2C-9.5,28.5,-6.8,31.2,-3.5,31.2L9.5,31.2" fill="none" id="282"/><path stroke="#03aca7" ed:parentid="108" ed:tosuperid="283" stroke-linejoin="round" stroke-linecap="round" transform="matrix(1,0,0,1,467,339)" d="M-9.5,-30.8L-9.5,-17.8L-9.5,24.8C-9.5,28.1,-6.8,30.8,-3.5,30.8L9.5,30.8" fill="none" id="284"/><g ed:height="81.8" transform="matrix(1,0,0,1,23,23)" ed:topictype="mainidea" ed:width="81.8" id="101" ed:layout="map"><path stroke="#1bbc9d" stroke-linejoin="round" stroke-width="3" d="M0,40.9C0,18.3,18.3,0,40.9,0C63.5,0,81.8,18.3,81.8,40.9C81.8,63.5,63.5,81.8,40.9,81.8C18.3,81.8,0,63.5,0,40.9z" fill="#1bbc9d"/><text class="st1"><tspan x="21" y="47.2" style="white-space:pre">用户</tspan></text></g><g ed:parentid="101" ed:height="53" transform="matrix(1,0,0,1,144,37)" ed:width="53" id="102" ed:layout="map"><path stroke="#99bd25" stroke-linejoin="round" d="M0,26.5C0,11.9,11.9,0,26.5,0C41.1,0,53,11.9,53,26.5C53,41.1,41.1,53,26.5,53C11.9,53,0,41.1,0,26.5z" fill="#99bd25"/><text class="st2"><tspan x="9" y="31.5" style="white-space:pre">注册</tspan></text></g><g ed:parentid="101" ed:height="69" transform="matrix(1,0,0,1,657,247)" ed:width="69" id="106" ed:layout="map"><path stroke="#e84361" stroke-linejoin="round" d="M0,34.5C0,15.4,15.4,0,34.5,0C53.6,0,69,15.4,69,34.5C69,53.6,53.6,69,34.5,69C15.4,69,0,53.6,0,34.5z" fill="#e84361"/><text class="st2"><tspan x="9" y="39.5" style="white-space:pre">经纪人</tspan></text></g><g ed:parentid="101" ed:height="53" transform="matrix(1,0,0,1,431,255)" ed:width="53" id="108" ed:layout="map"><path stroke="#03aca7" stroke-linejoin="round" d="M0,26.5C0,11.9,11.9,0,26.5,0C41.1,0,53,11.9,53,26.5C53,41.1,41.1,53,26.5,53C11.9,53,0,41.1,0,26.5z" fill="#03aca7"/><text class="st2"><tspan x="9" y="31.5" style="white-space:pre">看房</tspan></text></g><g ed:parentid="101" ed:height="69" transform="matrix(1,0,0,1,199,247)" ed:width="69" id="110" ed:layout="map"><path stroke="#aa92ce" stroke-linejoin="round" d="M0,34.5C0,15.4,15.4,0,34.5,0C53.6,0,69,15.4,69,34.5C69,53.6,53.6,69,34.5,69C15.4,69,0,53.6,0,34.5z" fill="#aa92ce"/><text class="st2"><tspan x="9" y="39.5" style="white-space:pre">审核员</tspan></text></g><g ed:parentid="101" ed:height="53" transform="matrix(1,0,0,1,311,37)" ed:width="53" id="112" ed:layout="map"><path stroke="#f08300" stroke-linejoin="round" d="M0,26.5C0,11.9,11.9,0,26.5,0C41.1,0,53,11.9,53,26.5C53,41.1,41.1,53,26.5,53C11.9,53,0,41.1,0,26.5z" fill="#f08300"/><text class="st2"><tspan x="9" y="31.5" style="white-space:pre">登录</tspan></text></g><g ed:parentid="101" ed:height="85" transform="matrix(1,0,0,1,469,21)" ed:width="85" id="122" ed:layout="map"><path stroke="#3ca8f0" stroke-linejoin="round" d="M0,42.5C0,19,19,0,42.5,0C66,0,85,19,85,42.5C85,66,66,85,42.5,85C19,85,0,66,0,42.5z" fill="#3ca8f0"/><text class="st2"><tspan x="9" y="47.5" style="white-space:pre">发布委托</tspan></text></g><g ed:parentid="101" ed:height="85" transform="matrix(1,0,0,1,641,21)" ed:width="85" id="128" ed:layout="map"><path stroke="#ffcc56" stroke-linejoin="round" d="M0,42.5C0,19,19,0,42.5,0C66,0,85,19,85,42.5C85,66,66,85,42.5,85C19,85,0,66,0,42.5z" fill="#ffcc56"/><text class="st2"><tspan x="9" y="47.5" style="white-space:pre">客服人员</tspan></text></g><g ed:parentid="101" ed:height="53" transform="matrix(1,0,0,1,199,428)" ed:width="53" id="130" ed:layout="map"><path stroke="#d4beac" stroke-linejoin="round" d="M0,26.5C0,11.9,11.9,0,26.5,0C41.1,0,53,11.9,53,26.5C53,41.1,41.1,53,26.5,53C11.9,53,0,41.1,0,26.5z" fill="#d4beac"/><text class="st2"><tspan x="9" y="31.5" style="white-space:pre">用户</tspan></text></g><g ed:parentid="101" ed:height="53" transform="matrix(1,0,0,1,385,428)" ed:width="53" id="134" ed:layout="map"><path stroke="#1c5661" stroke-linejoin="round" d="M0,26.5C0,11.9,11.9,0,26.5,0C41.1,0,53,11.9,53,26.5C53,41.1,41.1,53,26.5,53C11.9,53,0,41.1,0,26.5z" fill="#1c5661"/><text class="st2"><tspan x="9" y="31.5" style="white-space:pre">完成</tspan></text></g><g ed:parentid="102" ed:height="22.4" transform="matrix(1,0,0,1,189,112)" ed:width="82.2" id="200" ed:layout="map"><text class="st3"><tspan x="9" y="16.5" style="white-space:pre">username</tspan></text></g><g ed:parentid="102" ed:height="22.4" transform="matrix(1,0,0,1,189,141)" ed:width="80.59999999999999" id="202" ed:layout="map"><text class="st3"><tspan x="9" y="16.5" style="white-space:pre">password</tspan></text></g><g ed:parentid="112" ed:height="22.4" transform="matrix(1,0,0,1,357,112)" ed:width="73.40000000000001" id="206" ed:layout="map"><text class="st4"><tspan x="9" y="16.5" style="white-space:pre">检索房源</tspan></text></g><g ed:parentid="122" ed:height="22.4" transform="matrix(1,0,0,1,515,128)" ed:width="87" id="214" ed:layout="map"><text class="st5"><tspan x="9" y="16.5" style="white-space:pre">房源的信息</tspan></text></g><g ed:parentid="128" ed:height="22.4" transform="matrix(1,0,0,1,687,128)" ed:width="127.8" id="220" ed:layout="map"><text class="st6"><tspan x="9" y="16.5" style="white-space:pre">联系确定预约时间</tspan></text></g><g ed:parentid="106" ed:height="22.4" transform="matrix(1,0,0,1,703,338)" ed:width="195.8" id="224" ed:layout="map"><text class="st7"><tspan x="9" y="16.5" style="white-space:pre">待接受经纪人列表中接受预约</tspan></text></g><g ed:parentid="108" ed:height="22.4" transform="matrix(1,0,0,1,477,330)" ed:width="141.4" id="228" ed:layout="map"><text class="st8"><tspan x="9" y="16.5" style="white-space:pre">经纪人确定房源信息</tspan></text></g><g ed:parentid="110" ed:height="22.4" transform="matrix(1,0,0,1,245,338)" ed:width="114.2" id="232" ed:layout="map"><text class="st9"><tspan x="9" y="16.5" style="white-space:pre">审核，更新信息</tspan></text></g><g ed:parentid="110" ed:height="22.4" transform="matrix(1,0,0,1,245,367)" ed:width="147" id="234" ed:layout="map"><text class="st9"><tspan x="9" y="16.5" style="white-space:pre">上架/下架，通知用户</tspan></text></g><g ed:parentid="130" ed:height="22.4" transform="matrix(1,0,0,1,245,502)" ed:width="100.6" id="236" ed:layout="map"><text class="st10"><tspan x="9" y="16.5" style="white-space:pre">房源成功上架</tspan></text></g><g ed:parentid="122" ed:height="22.4" transform="matrix(1,0,0,1,515,157)" ed:width="46.2" id="273" ed:layout="map"><text class="st11"><tspan x="9" y="16.5" style="white-space:pre">称呼</tspan></text></g><g ed:parentid="214" ed:height="19.2" style="display:none" transform="matrix(1,0,0,1,543,164)" ed:width="59.8" id="275" ed:layout="map"><text class="st12"><tspan x="9" y="17.1" style="white-space:pre">子主题</tspan></text></g><g ed:parentid="122" ed:height="22.4" transform="matrix(1,0,0,1,515,186)" ed:width="73.40000000000001" id="277" ed:layout="map"><text class="st11"><tspan x="9" y="16.5" style="white-space:pre">联系电话</tspan></text></g><g ed:parentid="273" ed:height="19.2" style="display:none" transform="matrix(1,0,0,1,543,190)" ed:width="59.8" id="279" ed:layout="map"><text class="st12"><tspan x="9" y="17.1" style="white-space:pre">子主题</tspan></text></g><g ed:parentid="106" ed:height="22.4" transform="matrix(1,0,0,1,703,367)" ed:width="73.40000000000001" id="281" ed:layout="map"><text class="st13"><tspan x="9" y="16.5" style="white-space:pre">通知用户</tspan></text></g><g ed:parentid="108" ed:height="22.4" transform="matrix(1,0,0,1,477,359)" ed:width="46.2" id="283" ed:layout="map"><text class="st14"><tspan x="9" y="16.5" style="white-space:pre">提交</tspan></text></g><symbol id="plus"><path d="M11,6C11,8.8,8.8,11,6,11C3.2,11,1,8.8,1,6C1,3.2,3.2,1,6,1C8.8,1,11,3.2,11,6z" fill="url(#lg1)"/><path stroke="#46a000" stroke-width="0.7" d="M11,6C11,8.8,8.8,11,6,11C3.2,11,1,8.8,1,6C1,3.2,3.2,1,6,1C8.8,1,11,3.2,11,6zM3,6L9,6M6,3L6,9" fill="none"/></symbol><symbol id="minus"><path d="M11,6C11,8.8,8.8,11,6,11C3.2,11,1,8.8,1,6C1,3.2,3.2,1,6,1C8.8,1,11,3.2,11,6z" fill="url(#lg1)"/><path stroke="#46a000" stroke-width="0.7" d="M11,6C11,8.8,8.8,11,6,11C3.2,11,1,8.8,1,6C1,3.2,3.2,1,6,1C8.8,1,11,3.2,11,6zM3,6L9,6" fill="none"/></symbol><g ed:togtopicid="101" transform="translate(106,58)"><use xlink:href="#minus"/></g><g ed:togtopicid="102" transform="translate(164,91)"><use xlink:href="#minus"/></g><g ed:togtopicid="106" transform="translate(678,317)"><use xlink:href="#minus"/></g><g ed:togtopicid="108" transform="translate(452,309)"><use xlink:href="#minus"/></g><g ed:togtopicid="110" transform="translate(220,317)"><use xlink:href="#minus"/></g><g ed:togtopicid="112" transform="translate(332,91)"><use xlink:href="#minus"/></g><g ed:togtopicid="122" transform="translate(490,107)"><use xlink:href="#minus"/></g><g ed:togtopicid="128" transform="translate(662,107)"><use xlink:href="#minus"/></g><g ed:togtopicid="130" transform="translate(220,482)"><use xlink:href="#minus"/></g><g ed:togtopicid="214" transform="translate(521,151)"><use xlink:href="#plus"/></g><g ed:togtopicid="273" transform="translate(521,180)"><use xlink:href="#plus"/></g></svg>